<svg width="159" height="120" viewBox="0 0 159 120" fill="none" xmlns="http://www.w3.org/2000/svg">
<path d="M7.07386 116V102.705L38.1392 73.9403C40.7813 71.3835 42.9972 69.0824 44.7869 67.0369C46.6051 64.9915 47.983 62.9886 48.9205 61.0284C49.858 59.0398 50.3267 56.8949 50.3267 54.5938C50.3267 52.0369 49.7443 49.8352 48.5795 47.9886C47.4148 46.1136 45.8239 44.679 43.8068 43.6847C41.7898 42.6619 39.5028 42.1506 36.946 42.1506C34.2756 42.1506 31.946 42.6903 29.9574 43.7699C27.9688 44.8494 26.4347 46.3977 25.3551 48.4148C24.2756 50.4318 23.7358 52.8324 23.7358 55.6165H6.22159C6.22159 49.9062 7.5142 44.9489 10.0994 40.7443C12.6847 36.5398 16.3068 33.2869 20.9659 30.9858C25.625 28.6847 30.9943 27.5341 37.0739 27.5341C43.3239 27.5341 48.7642 28.642 53.3949 30.858C58.054 33.0455 61.6761 36.0852 64.2614 39.9773C66.8466 43.8693 68.1392 48.3295 68.1392 53.358C68.1392 56.6534 67.4858 59.9062 66.179 63.1165C64.9006 66.3267 62.6136 69.892 59.3182 73.8125C56.0227 77.7045 51.3778 82.3778 45.3835 87.8324L32.642 100.318V100.915H69.2898V116H7.07386ZM116.879 117.918C109.549 117.889 103.242 116.085 97.9581 112.506C92.7024 108.926 88.6541 103.741 85.8132 96.9517C83.0007 90.1619 81.6087 81.9943 81.6371 72.4489C81.6371 62.9318 83.0433 54.821 85.8558 48.1165C88.6967 41.4119 92.745 36.3125 98.0007 32.8182C103.285 29.2955 109.577 27.5341 116.879 27.5341C124.18 27.5341 130.458 29.2955 135.714 32.8182C140.998 36.3409 145.06 41.4545 147.901 48.1591C150.742 54.8352 152.148 62.9318 152.12 72.4489C152.12 82.0227 150.7 90.2045 147.859 96.9943C145.046 103.784 141.012 108.969 135.756 112.548C130.501 116.128 124.208 117.918 116.879 117.918ZM116.879 102.619C121.879 102.619 125.87 100.105 128.853 95.0767C131.836 90.0483 133.313 82.5057 133.285 72.4489C133.285 65.8295 132.603 60.3182 131.239 55.9148C129.904 51.5114 128.001 48.2017 125.529 45.9858C123.086 43.7699 120.202 42.6619 116.879 42.6619C111.907 42.6619 107.93 45.1477 104.947 50.1193C101.964 55.0909 100.458 62.5341 100.43 72.4489C100.43 79.1534 101.097 84.75 102.433 89.2386C103.796 93.6989 105.714 97.0511 108.185 99.2955C110.657 101.511 113.555 102.619 116.879 102.619Z" fill="#841431"/>
<path d="M15 50.1957C18.0974 27.7692 56.5049 26.7724 58.9828 50.1957C59.6023 70.7535 26.77 95.2949 15 109H63.9386M116.93 33.9988C82.2397 33.9988 79.1423 110 116.93 110C154.718 110 150.5 30.5 116.93 33.9988Z" stroke="white"/>
</svg>
