<svg width="1920" height="549" viewBox="0 0 1920 549" fill="none" xmlns="http://www.w3.org/2000/svg">
<rect x="-185.5" y="-1.5" width="211" height="127" rx="9.5" stroke="#F0F0F0" stroke-opacity="0.3"/>
<rect x="39.5" y="-1.5" width="211" height="127" rx="9.5" stroke="#F0F0F0" stroke-opacity="0.3"/>
<rect x="264.5" y="-1.5" width="211" height="127" rx="9.5" stroke="#812039"/>
<rect x="489.5" y="-1.5" width="211" height="127" rx="9.5" stroke="#F0F0F0" stroke-opacity="0.3"/>
<rect x="714.5" y="-1.5" width="211" height="127" rx="9.5" stroke="#F0F0F0" stroke-opacity="0.3"/>
<rect x="939.5" y="-1.5" width="211" height="127" rx="9.5" stroke="#F0F0F0" stroke-opacity="0.3"/>
<rect x="1164.5" y="-1.5" width="211" height="127" rx="9.5" stroke="#F0F0F0" stroke-opacity="0.3"/>
<rect x="1389.5" y="-1.5" width="211" height="127" rx="9.5" stroke="#F0F0F0" stroke-opacity="0.3"/>
<rect x="1614.5" y="-1.5" width="211" height="127" rx="9.5" stroke="#F0F0F0" stroke-opacity="0.3"/>
<rect x="1839.5" y="-1.5" width="211" height="127" rx="9.5" stroke="#F0F0F0" stroke-opacity="0.3"/>
<rect x="-185.5" y="139.5" width="211" height="127" rx="9.5" stroke="#F0F0F0" stroke-opacity="0.3"/>
<rect x="39.5" y="139.5" width="211" height="127" rx="9.5" stroke="#F0F0F0" stroke-opacity="0.3"/>
<rect x="264.5" y="139.5" width="211" height="127" rx="9.5" stroke="#812039"/>
<rect x="489.5" y="139.5" width="211" height="127" rx="9.5" stroke="#812039"/>
<rect x="714.5" y="139.5" width="211" height="127" rx="9.5" stroke="#812039"/>
<rect x="939.5" y="139.5" width="211" height="127" rx="9.5" stroke="#F0F0F0" stroke-opacity="0.3"/>
<rect x="1164.5" y="139.5" width="211" height="127" rx="9.5" stroke="#F0F0F0" stroke-opacity="0.3"/>
<rect x="1389.5" y="139.5" width="211" height="127" rx="9.5" stroke="#F0F0F0" stroke-opacity="0.3"/>
<rect x="1614.5" y="139.5" width="211" height="127" rx="9.5" stroke="#F0F0F0" stroke-opacity="0.3"/>
<rect x="1839.5" y="139.5" width="211" height="127" rx="9.5" stroke="#F0F0F0" stroke-opacity="0.3"/>
<rect x="-185.5" y="280.5" width="211" height="127" rx="9.5" stroke="#F0F0F0" stroke-opacity="0.3"/>
<rect x="39.5" y="280.5" width="211" height="127" rx="9.5" stroke="#F0F0F0" stroke-opacity="0.3"/>
<rect x="264.5" y="280.5" width="211" height="127" rx="9.5" stroke="#812039"/>
<rect x="489.5" y="280.5" width="211" height="127" rx="9.5" stroke="#812039"/>
<rect x="714.5" y="280.5" width="211" height="127" rx="9.5" stroke="#812039"/>
<rect x="939.5" y="280.5" width="211" height="127" rx="9.5" stroke="#F0F0F0" stroke-opacity="0.3"/>
<rect x="1164.5" y="280.5" width="211" height="127" rx="9.5" stroke="#F0F0F0" stroke-opacity="0.3"/>
<rect x="1389.5" y="280.5" width="211" height="127" rx="9.5" stroke="#F0F0F0" stroke-opacity="0.3"/>
<rect x="1614.5" y="280.5" width="211" height="127" rx="9.5" stroke="#F0F0F0" stroke-opacity="0.3"/>
<rect x="1839.5" y="280.5" width="211" height="127" rx="9.5" stroke="#F0F0F0" stroke-opacity="0.3"/>
<rect x="-185.5" y="421.5" width="211" height="127" rx="9.5" stroke="#F0F0F0" stroke-opacity="0.3"/>
<rect x="39.5" y="421.5" width="211" height="127" rx="9.5" stroke="#F0F0F0" stroke-opacity="0.3"/>
<rect x="264.5" y="421.5" width="211" height="127" rx="9.5" stroke="#812039"/>
<rect x="489.5" y="421.5" width="211" height="127" rx="9.5" stroke="#812039"/>
<rect x="714.5" y="421.5" width="211" height="127" rx="9.5" stroke="#F0F0F0" stroke-opacity="0.3"/>
<rect x="939.5" y="421.5" width="211" height="127" rx="9.5" stroke="#F0F0F0" stroke-opacity="0.3"/>
<rect x="1164.5" y="421.5" width="211" height="127" rx="9.5" stroke="#F0F0F0" stroke-opacity="0.3"/>
<rect x="1389.5" y="421.5" width="211" height="127" rx="9.5" stroke="#F0F0F0" stroke-opacity="0.3"/>
<rect x="1614.5" y="421.5" width="211" height="127" rx="9.5" stroke="#F0F0F0" stroke-opacity="0.3"/>
<rect x="1839.5" y="421.5" width="211" height="127" rx="9.5" stroke="#F0F0F0" stroke-opacity="0.3"/>
</svg>
