<svg width="226" height="53" viewBox="0 0 226 53" fill="none" xmlns="http://www.w3.org/2000/svg">
<path d="M162.567 15.4743C162.603 16.0437 162.544 16.615 162.393 17.1651C162.258 17.6899 162.023 18.1835 161.7 18.6186C161.383 19.0381 160.976 19.3808 160.508 19.6214C160.008 19.8712 159.454 19.9959 158.895 19.9848C158.188 20.0271 157.492 19.7906 156.957 19.3259C156.71 19.081 156.515 18.7896 156.382 18.4686C156.249 18.1475 156.181 17.8033 156.182 17.4558C156.147 16.8747 156.209 16.2918 156.366 15.7311C156.506 15.2056 156.746 14.7121 157.073 14.2776C157.405 13.8526 157.831 13.5111 158.318 13.2806C158.805 13.0501 159.34 12.9369 159.878 12.9501C160.576 12.915 161.26 13.1472 161.792 13.5994C162.042 13.8429 162.24 14.1347 162.374 14.4569C162.508 14.7792 162.575 15.1253 162.572 15.4743H162.567ZM160.993 18.1535C161.232 17.8034 161.406 17.4127 161.506 17.0004C161.619 16.5429 161.662 16.0707 161.632 15.6003C161.634 15.0769 161.443 14.5712 161.094 14.1807C160.917 14.0142 160.709 13.8854 160.48 13.8022C160.252 13.7189 160.009 13.6828 159.767 13.6962C159.363 13.6886 158.964 13.7908 158.614 13.9918C158.274 14.194 157.983 14.4686 157.761 14.796C157.532 15.15 157.368 15.5421 157.277 15.9539C157.166 16.3971 157.124 16.8545 157.151 17.3105C157.141 17.8453 157.333 18.364 157.688 18.7639C157.865 18.9306 158.074 19.0596 158.302 19.1429C158.531 19.2262 158.773 19.2621 159.016 19.2484C159.418 19.253 159.814 19.151 160.164 18.9528C160.5 18.7585 160.786 18.4901 161.002 18.168L160.993 18.1535ZM167.053 15.3822C167.231 15.534 167.373 15.7225 167.47 15.9345C167.582 16.1748 167.643 16.4353 167.649 16.7C167.68 17.1486 167.626 17.599 167.489 18.0275C167.367 18.412 167.166 18.7667 166.898 19.0691C166.652 19.3522 166.351 19.5814 166.012 19.7425C165.668 19.8968 165.294 19.9745 164.917 19.9703C164.654 19.9808 164.392 19.9377 164.146 19.8436C163.9 19.7495 163.676 19.6063 163.488 19.4228C163.093 18.9737 162.88 18.393 162.892 17.7949C162.875 17.4538 162.886 17.1119 162.926 16.7727C162.975 16.3765 163.055 15.9846 163.163 15.6003C163.263 15.2187 163.406 14.8498 163.589 14.5005C163.749 14.1799 163.969 13.8936 164.239 13.6575C164.525 13.4195 164.853 13.2386 165.208 13.1246C165.694 12.9646 166.199 12.8669 166.709 12.8339L167.388 12.7806L167.945 12.7418L167.833 13.4782L167.238 13.5218L166.661 13.5654C166.334 13.6022 166.01 13.6638 165.692 13.7495C165.375 13.8242 165.08 13.9718 164.83 14.1807C164.659 14.334 164.512 14.512 164.394 14.7088C164.243 14.9625 164.131 15.2367 164.059 15.5227C164.321 15.3536 164.603 15.2169 164.897 15.1158C165.191 15.0073 165.501 14.9515 165.813 14.951C166.054 14.9471 166.293 14.9848 166.521 15.0625C166.73 15.1309 166.924 15.2395 167.092 15.3822H167.053ZM166.768 16.9035C166.776 16.7359 166.748 16.5685 166.686 16.4126C166.624 16.2567 166.529 16.116 166.408 16.0001C166.286 15.8843 166.141 15.7959 165.983 15.7411C165.824 15.6863 165.656 15.6664 165.489 15.6826C165.209 15.6839 164.931 15.7297 164.665 15.8183C164.401 15.9033 164.146 16.0153 163.904 16.1526C163.85 16.4166 163.809 16.6835 163.783 16.9519C163.755 17.2077 163.743 17.465 163.749 17.7223C163.76 17.9816 163.809 18.2378 163.895 18.4829C163.958 18.6644 164.061 18.8298 164.195 18.9674C164.308 19.0781 164.446 19.1596 164.597 19.2048C164.743 19.2509 164.895 19.2738 165.048 19.2726C165.305 19.2783 165.56 19.217 165.787 19.0947C166.013 18.9724 166.205 18.7933 166.341 18.575C166.663 18.0832 166.813 17.499 166.768 16.9132V16.9035ZM172.097 18.0566C172.093 17.9609 172.07 17.8671 172.029 17.7804C171.988 17.6938 171.922 17.6213 171.84 17.5721C171.719 17.4898 171.579 17.4413 171.433 17.4316C171.199 17.4188 170.965 17.4188 170.731 17.4316H169.951L169.636 19.2096H170.474C170.712 19.2128 170.95 19.1998 171.186 19.1709C171.344 19.1473 171.497 19.0948 171.637 19.0158C171.789 18.9278 171.913 18.7963 171.99 18.6379C172.074 18.4647 172.11 18.2726 172.097 18.0808V18.0566ZM172.959 17.9258C172.975 18.2161 172.915 18.5055 172.786 18.766C172.657 19.0265 172.463 19.2494 172.223 19.4131C172.017 19.5561 171.787 19.6612 171.545 19.7232C171.253 19.793 170.953 19.8256 170.653 19.8201H168.633L169.423 15.4598H167.935L168.056 14.7815H170.401L170.038 16.7678H171.109C171.402 16.76 171.696 16.7811 171.985 16.8308C172.203 16.8747 172.407 16.9731 172.577 17.1167C172.694 17.2152 172.787 17.3396 172.848 17.48C172.918 17.6321 172.956 17.7971 172.959 17.9645V17.9258ZM177.32 16.7436C177.32 16.6516 177.32 16.5789 177.32 16.5208C177.32 16.4626 177.32 16.39 177.32 16.3173C177.321 16.1782 177.294 16.0402 177.242 15.9114C177.189 15.7825 177.112 15.6652 177.014 15.5663C176.896 15.4654 176.759 15.3891 176.611 15.3416C176.463 15.2942 176.307 15.2767 176.152 15.2902C175.743 15.2847 175.345 15.4276 175.033 15.6923C174.711 15.961 174.492 16.3323 174.413 16.7436H177.32ZM175.779 19.9363C175.183 19.9684 174.594 19.7976 174.107 19.4519C173.895 19.2746 173.724 19.0523 173.607 18.8009C173.491 18.5495 173.432 18.2754 173.434 17.9984C173.366 17.1357 173.637 16.2804 174.19 15.6148C174.448 15.2935 174.778 15.0373 175.153 14.8665C175.529 14.6957 175.939 14.6152 176.351 14.6313C176.835 14.6027 177.312 14.7566 177.688 15.0625C177.852 15.2156 177.983 15.4007 178.073 15.6066C178.163 15.8124 178.21 16.0345 178.211 16.2591C178.219 16.4028 178.219 16.5467 178.211 16.6903C178.211 16.8874 178.182 17.1151 178.124 17.3734H174.398C174.384 17.4601 174.374 17.5474 174.369 17.6351C174.369 17.7174 174.369 17.7998 174.369 17.8676C174.369 18.0563 174.407 18.243 174.483 18.4157C174.559 18.5884 174.671 18.7434 174.81 18.8705C175.124 19.132 175.526 19.2637 175.934 19.2387C176.281 19.2347 176.624 19.1674 176.947 19.0401C177.252 18.9344 177.542 18.7877 177.809 18.604H177.857L177.722 19.5245L177.324 19.6699C177.176 19.726 177.024 19.7713 176.869 19.8055C176.685 19.854 176.52 19.8879 176.385 19.9121C176.205 19.9379 176.023 19.9493 175.842 19.946L175.779 19.9363ZM182.814 21.0361H182.014L182.237 19.8055H178.4L178.177 21.0361H177.378L177.717 19.1273H178.289C178.749 18.5208 179.127 17.8561 179.413 17.1506C179.739 16.3837 179.978 15.5825 180.125 14.7621H183.308L182.528 19.1224H183.162L182.823 21.0313L182.814 21.0361ZM181.68 19.137L182.339 15.4501H180.818C180.658 16.17 180.424 16.8715 180.12 17.543C179.868 18.1142 179.542 18.65 179.151 19.137H181.68ZM187.949 19.8298H187.101L187.784 16.0314L184.466 19.8298H183.681L184.587 14.7718H185.439L184.771 18.4877L188.046 14.7718H188.855L187.949 19.8298ZM193.356 19.8298H192.498L192.905 17.5333H190.401L189.989 19.8298H189.131L190.037 14.7718H190.885L190.512 16.8551H193.036L193.409 14.7718H194.276L193.356 19.8298ZM198.462 16.7533C198.462 16.6613 198.462 16.5886 198.462 16.5305C198.462 16.4723 198.462 16.3996 198.462 16.327C198.463 16.1879 198.437 16.0499 198.385 15.921C198.332 15.7922 198.255 15.6749 198.157 15.576C198.039 15.4751 197.902 15.3987 197.754 15.3513C197.606 15.3039 197.45 15.2864 197.295 15.2999C196.885 15.2944 196.488 15.4372 196.176 15.702C195.854 15.9707 195.635 16.342 195.555 16.7533H198.462ZM196.922 19.946C196.326 19.9781 195.737 19.8073 195.25 19.4616C195.037 19.2843 194.866 19.0619 194.75 18.8106C194.633 18.5592 194.574 18.2851 194.577 18.0081C194.508 17.1454 194.779 16.2901 195.333 15.6245C195.586 15.3065 195.909 15.0514 196.277 14.8791C196.645 14.7068 197.048 14.622 197.455 14.6313C197.938 14.6027 198.416 14.7566 198.792 15.0625C198.956 15.2153 199.087 15.4005 199.176 15.6065C199.266 15.8124 199.311 16.0347 199.31 16.2591C199.318 16.4028 199.318 16.5467 199.31 16.6903C199.31 16.8874 199.281 17.1151 199.223 17.3734H195.492C195.492 17.4655 195.492 17.5479 195.468 17.6351V17.8676C195.469 18.0565 195.51 18.243 195.586 18.4156C195.663 18.5882 195.775 18.743 195.914 18.8705C196.228 19.132 196.63 19.2637 197.038 19.2387C197.385 19.2347 197.728 19.1674 198.05 19.0401C198.356 18.9344 198.646 18.7877 198.913 18.604H198.961L198.826 19.5245L198.428 19.6699C198.28 19.726 198.128 19.7713 197.973 19.8055C197.789 19.854 197.619 19.8879 197.488 19.9121C197.309 19.9379 197.127 19.9493 196.946 19.946H196.922ZM203.787 19.8298H202.924L203.336 17.5333H200.812L200.405 19.8298H199.543L200.449 14.7718H201.311L200.938 16.8551H203.481L203.854 14.7718H204.717L203.811 19.8298H203.787ZM209.189 19.8298H208.326L208.738 17.5333H206.214L205.802 19.8298H204.935L205.841 14.7718H206.703L206.33 16.8551H208.849L209.223 14.7718H210.085L209.174 19.8298H209.189ZM213.927 17.1603C213.442 17.1603 213.05 17.2184 212.691 17.2669C212.389 17.3056 212.092 17.3837 211.81 17.4994C211.595 17.5782 211.408 17.7179 211.272 17.9015C211.15 18.0913 211.096 18.3165 211.117 18.541C211.117 18.6355 211.14 18.7285 211.183 18.8126C211.226 18.8967 211.288 18.9696 211.364 19.0255C211.572 19.1562 211.816 19.2173 212.062 19.1999C212.348 19.197 212.63 19.1343 212.89 19.0158C213.166 18.8989 213.428 18.751 213.67 18.575L213.927 17.1506V17.1603ZM213.539 19.292L213.219 19.4955C213.088 19.5849 212.948 19.6628 212.803 19.728C212.647 19.7993 212.485 19.8561 212.318 19.8976C212.104 19.9489 211.885 19.9734 211.664 19.9703C211.3 19.9834 210.943 19.8589 210.666 19.6214C210.537 19.5048 210.433 19.3629 210.361 19.2047C210.288 19.0464 210.249 18.875 210.245 18.7009C210.211 18.3496 210.286 17.9963 210.458 17.6884C210.637 17.3955 210.896 17.1601 211.204 17.0101C211.587 16.8223 211.998 16.6964 212.42 16.637C212.962 16.5539 213.509 16.5054 214.058 16.4917C214.058 16.4093 214.087 16.3367 214.092 16.2737C214.099 16.2093 214.099 16.1443 214.092 16.0799C214.088 15.9553 214.053 15.8338 213.99 15.7262C213.92 15.6363 213.833 15.5621 213.733 15.5082C213.613 15.4541 213.486 15.4166 213.355 15.3968C213.194 15.3782 213.033 15.3685 212.871 15.3677C212.576 15.3738 212.283 15.4161 211.999 15.4937C211.73 15.5585 211.466 15.641 211.209 15.7408H211.165L211.291 14.8929C211.537 14.8273 211.786 14.7755 212.037 14.7379C212.357 14.68 212.681 14.6508 213.006 14.6507C213.501 14.6197 213.994 14.7218 214.436 14.9462C214.596 15.0422 214.728 15.1787 214.819 15.3419C214.91 15.5052 214.957 15.6895 214.954 15.8764C214.961 15.9635 214.961 16.051 214.954 16.138C214.954 16.2301 214.954 16.3173 214.92 16.3996L214.305 19.8298H213.457L213.554 19.292H213.539ZM219.319 19.8298H218.457L218.82 17.8046H217.919L215.981 19.8298H214.881L216.974 17.7174C216.683 17.6408 216.419 17.4868 216.209 17.2717C216.033 17.0769 215.932 16.8264 215.923 16.5644C215.893 16.2543 215.961 15.9427 216.117 15.6729C216.276 15.4169 216.498 15.2052 216.761 15.0576C216.966 14.9395 217.191 14.8606 217.425 14.8251C217.682 14.7893 217.941 14.7715 218.2 14.7718H220.215L219.309 19.8298H219.319ZM218.936 17.1748L219.246 15.4161H218.127C217.966 15.407 217.804 15.407 217.643 15.4161C217.518 15.4398 217.399 15.484 217.289 15.547C217.137 15.6261 217.016 15.7541 216.945 15.9103C216.856 16.0851 216.817 16.2815 216.834 16.4772C216.836 16.5616 216.853 16.6451 216.882 16.7242C216.913 16.7962 216.96 16.8607 217.018 16.9132C217.127 17.0114 217.261 17.0784 217.405 17.107C217.577 17.1424 217.753 17.1587 217.929 17.1554L218.936 17.1748ZM162.301 25.4643C162.34 26.0701 162.274 26.6781 162.107 27.2617C161.965 27.7798 161.712 28.2609 161.366 28.6715C161.022 29.0686 160.593 29.3832 160.111 29.592C159.569 29.8168 158.987 29.9273 158.401 29.9166C157.994 29.918 157.588 29.879 157.189 29.8003C156.856 29.7385 156.531 29.6394 156.22 29.5048L156.39 28.5359H156.487C156.741 28.7589 157.04 28.9242 157.364 29.0203C157.75 29.1386 158.152 29.1974 158.556 29.1947C158.924 29.1988 159.291 29.1348 159.636 29.0058C159.958 28.88 160.251 28.6905 160.498 28.4486C160.733 28.2056 160.923 27.9236 161.06 27.6153C161.214 27.2838 161.317 26.931 161.366 26.5689H157.63L157.761 25.8228H161.414V25.7162C161.414 25.6871 161.414 25.6435 161.414 25.5854C161.402 25.3005 161.34 25.0201 161.23 24.7569C161.127 24.5294 160.976 24.3264 160.789 24.161C160.595 23.9967 160.369 23.8746 160.125 23.8025C159.857 23.7229 159.577 23.6837 159.297 23.6862C158.89 23.6844 158.486 23.7415 158.095 23.8558C157.733 23.9664 157.388 24.1296 157.073 24.3403H156.971L157.146 23.3713C157.473 23.2459 157.81 23.1471 158.154 23.0758C158.552 22.9938 158.958 22.9532 159.365 22.9546C159.77 22.949 160.174 23.0062 160.561 23.1242C160.886 23.2259 161.187 23.3905 161.448 23.6087C161.706 23.8224 161.912 24.0926 162.049 24.3984C162.2 24.7442 162.282 25.1161 162.291 25.4933L162.301 25.4643ZM166.714 29.7907H165.857L166.264 27.4942H163.754L163.342 29.7907H162.485L163.391 24.7327H164.239L163.866 26.8111H166.39L166.763 24.7327H167.63L166.724 29.7907H166.714ZM171.821 26.7094C171.821 26.6222 171.821 26.5495 171.821 26.4865C171.821 26.4235 171.821 26.3605 171.821 26.2879C171.822 26.148 171.796 26.0092 171.744 25.8795C171.691 25.7498 171.614 25.6317 171.515 25.5321C171.275 25.3324 170.965 25.235 170.653 25.2608C170.253 25.267 169.869 25.4146 169.568 25.6774C169.247 25.9469 169.029 26.3178 168.948 26.7287L171.821 26.7094ZM170.28 29.9069C169.684 29.9413 169.094 29.7703 168.609 29.4224C168.395 29.2456 168.224 29.0234 168.107 28.7719C167.991 28.5205 167.932 28.2461 167.935 27.969C167.866 27.1063 168.137 26.2507 168.691 25.5854C168.944 25.2671 169.267 25.0118 169.635 24.8395C170.004 24.6672 170.407 24.5825 170.813 24.5922C171.296 24.5622 171.773 24.7143 172.15 25.0185C172.315 25.1722 172.446 25.3583 172.535 25.5651C172.624 25.7719 172.67 25.9948 172.669 26.22C172.677 26.3637 172.677 26.5076 172.669 26.6512C172.669 26.8499 172.625 27.0727 172.581 27.3343H168.851C168.851 27.4215 168.851 27.5088 168.827 27.5911C168.802 27.6735 168.827 27.7558 168.827 27.8285C168.826 28.0172 168.865 28.2039 168.941 28.3766C169.017 28.5493 169.128 28.7042 169.268 28.8314C169.583 29.0894 169.985 29.2191 170.392 29.1947C170.738 29.1925 171.081 29.1268 171.404 29.001C171.709 28.8918 171.999 28.7436 172.266 28.5601H172.315L172.179 29.4806L171.782 29.6308C171.633 29.6847 171.481 29.7299 171.327 29.7664C171.142 29.8116 170.981 29.8456 170.842 29.8682C170.663 29.8958 170.481 29.9088 170.299 29.9069H170.28ZM177.867 26.3315C177.894 26.8071 177.84 27.2838 177.707 27.7413C177.59 28.1473 177.4 28.5283 177.145 28.8653C176.911 29.1731 176.616 29.4288 176.278 29.6162C175.945 29.7965 175.571 29.8898 175.193 29.8875C174.938 29.8901 174.684 29.8592 174.437 29.7955C174.213 29.7371 173.999 29.6457 173.802 29.5242L173.424 31.6559H172.572L173.812 24.7327H174.665L174.568 25.2608C174.82 25.074 175.089 24.9118 175.372 24.7763C175.652 24.6513 175.956 24.5885 176.263 24.5922C176.476 24.5791 176.69 24.6131 176.888 24.6918C177.087 24.7706 177.265 24.892 177.412 25.0476C177.709 25.4093 177.87 25.8635 177.867 26.3315ZM176.98 26.4913C176.982 26.1924 176.885 25.9012 176.704 25.6629C176.605 25.5608 176.485 25.4819 176.352 25.4317C176.218 25.3814 176.076 25.3611 175.934 25.3722C175.668 25.3748 175.406 25.4377 175.168 25.5563C174.912 25.6746 174.668 25.8157 174.437 25.9778L173.928 28.8411C174.112 28.9386 174.305 29.0181 174.505 29.0785C174.717 29.1325 174.935 29.1586 175.154 29.156C175.446 29.1602 175.733 29.0812 175.982 28.9283C176.222 28.7812 176.423 28.5784 176.569 28.3372C176.732 28.0787 176.848 27.7933 176.913 27.4942C176.982 27.1647 177.006 26.8274 176.985 26.4913H176.98ZM182.455 25.411H179.824L179.035 29.7713H178.177L179.083 24.7133H182.571L182.455 25.3916V25.411ZM185.982 26.7094C185.982 26.6222 185.982 26.5495 185.982 26.4865C185.987 26.4204 185.987 26.354 185.982 26.2879C185.98 26.0062 185.871 25.7359 185.677 25.5321C185.436 25.3328 185.126 25.2355 184.814 25.2608C184.405 25.2522 184.007 25.3935 183.695 25.658C183.374 25.9273 183.153 26.2981 183.07 26.7094H185.982ZM184.446 29.9069C183.849 29.9412 183.257 29.7703 182.77 29.4224C182.557 29.2456 182.385 29.0234 182.269 28.7719C182.152 28.5205 182.093 28.2461 182.097 27.969C182.028 27.1063 182.299 26.2507 182.852 25.5854C183.105 25.2674 183.429 25.0123 183.797 24.84C184.165 24.6677 184.568 24.5829 184.974 24.5922C185.459 24.561 185.938 24.7132 186.316 25.0185C186.48 25.1729 186.61 25.3592 186.7 25.5658C186.789 25.7724 186.835 25.995 186.835 26.22C186.843 26.3637 186.843 26.5076 186.835 26.6512C186.835 26.8499 186.786 27.0727 186.743 27.3343H183.017C183.002 27.4191 182.994 27.505 182.993 27.5911C182.988 27.6702 182.988 27.7495 182.993 27.8285C182.994 28.0169 183.034 28.2029 183.11 28.3754C183.186 28.5478 183.296 28.703 183.434 28.8314C183.75 29.0885 184.151 29.2182 184.558 29.1947C184.904 29.1929 185.248 29.1272 185.57 29.001C185.877 28.8917 186.168 28.7436 186.437 28.5601H186.486L186.345 29.4806L185.948 29.6308C185.799 29.6847 185.647 29.7299 185.493 29.7664C185.309 29.81 185.144 29.8439 185.008 29.8682C184.829 29.8958 184.647 29.9088 184.466 29.9069H184.446ZM191.563 25.411H189.742L188.966 29.7713H188.104L188.879 25.411H187.058L187.184 24.7327H191.694L191.563 25.411ZM195.439 29.7713H194.586L195.274 25.9681L191.951 29.7713H191.166L192.072 24.7133H192.925L192.256 28.4293L195.531 24.7133H196.345L195.439 29.7713ZM200.55 29.7713H199.688L200.037 27.8334C199.765 27.9109 199.504 27.9787 199.247 28.0368C198.985 28.0961 198.717 28.1254 198.448 28.124C198.075 28.1356 197.708 28.0269 197.401 27.814C197.264 27.7155 197.152 27.5861 197.075 27.4362C196.998 27.2863 196.957 27.1203 196.956 26.9516C196.948 26.8678 196.948 26.7835 196.956 26.6997C196.956 26.6076 196.956 26.5253 196.98 26.4574L197.295 24.7182H198.152L197.91 26.0795C197.888 26.1801 197.873 26.2821 197.866 26.3848C197.86 26.4816 197.86 26.5787 197.866 26.6755C197.873 26.7855 197.893 26.8944 197.924 27.0001C197.959 27.0877 198.015 27.1646 198.089 27.2229C198.171 27.2933 198.267 27.3446 198.37 27.3731C198.528 27.4137 198.692 27.4301 198.855 27.4215C199.063 27.4174 199.27 27.3963 199.475 27.3586C199.709 27.3186 199.94 27.2652 200.168 27.1987L200.618 24.7182H201.476L200.575 29.7907L200.55 29.7713ZM205.652 26.69C205.656 26.6157 205.656 26.5414 205.652 26.4671C205.657 26.401 205.657 26.3346 205.652 26.2685C205.653 26.1286 205.627 25.9898 205.575 25.8601C205.522 25.7304 205.445 25.6123 205.347 25.5127C205.106 25.313 204.796 25.2156 204.484 25.2414C204.076 25.2341 203.678 25.3753 203.365 25.6387C203.045 25.9081 202.826 26.2791 202.745 26.69H205.652ZM204.116 29.8875C203.52 29.9219 202.93 29.7509 202.445 29.4031C202.231 29.2263 202.06 29.004 201.944 28.7525C201.827 28.5011 201.768 28.2268 201.771 27.9496C201.705 27.0955 201.97 26.2487 202.512 25.5854C202.766 25.2674 203.089 25.0123 203.457 24.84C203.825 24.6677 204.228 24.5829 204.635 24.5922C205.119 24.561 205.598 24.7132 205.977 25.0185C206.141 25.1722 206.272 25.3583 206.361 25.5651C206.451 25.7719 206.496 25.9948 206.495 26.22C206.503 26.3637 206.503 26.5076 206.495 26.6512C206.477 26.8805 206.446 27.1085 206.403 27.3343H202.677C202.677 27.4215 202.677 27.5088 202.677 27.5911C202.677 27.6735 202.677 27.7558 202.677 27.8285C202.678 28.0174 202.719 28.2039 202.795 28.3765C202.872 28.5491 202.984 28.7039 203.123 28.8314C203.439 29.0894 203.84 29.2191 204.247 29.1947C204.593 29.1925 204.937 29.1268 205.259 29.001C205.555 28.8975 205.837 28.7576 206.098 28.5843H206.146L206.01 29.5048L205.608 29.655C205.461 29.7096 205.311 29.755 205.158 29.7907L204.673 29.8924C204.494 29.9201 204.312 29.933 204.131 29.9312L204.116 29.8875ZM208.937 29.8875C208.649 29.8911 208.361 29.8536 208.084 29.7761C207.841 29.7012 207.616 29.5794 207.42 29.4176C207.229 29.2559 207.078 29.0519 206.979 28.8217C206.862 28.5591 206.798 28.2759 206.79 27.9884C206.763 27.5405 206.814 27.0913 206.941 26.6609C207.06 26.2664 207.256 25.8993 207.517 25.5805C207.77 25.2734 208.09 25.0281 208.452 24.8635C208.839 24.6831 209.261 24.5921 209.688 24.597C209.973 24.5972 210.257 24.6379 210.531 24.7182C210.774 24.7912 211.009 24.8886 211.233 25.0088L211.097 25.9294H211.049L210.812 25.7404C210.707 25.6617 210.595 25.5935 210.477 25.5369C210.343 25.4667 210.202 25.4115 210.056 25.3722C209.887 25.3254 209.713 25.3025 209.537 25.3044C209.261 25.2984 208.987 25.3634 208.743 25.4931C208.499 25.6229 208.292 25.8131 208.142 26.0456C207.79 26.5793 207.628 27.2158 207.682 27.8527C207.684 28.2113 207.819 28.5564 208.06 28.8217C208.19 28.9415 208.343 29.0338 208.509 29.0929C208.676 29.152 208.852 29.1768 209.029 29.1657C209.221 29.1665 209.412 29.1387 209.596 29.0833C209.762 29.0396 209.924 28.9813 210.08 28.9089C210.225 28.8362 210.356 28.7636 210.482 28.686C210.608 28.6085 210.695 28.5504 210.749 28.5068H210.797L210.666 29.437C210.401 29.559 210.128 29.661 209.848 29.7422C209.56 29.8293 209.261 29.8733 208.961 29.873L208.937 29.8875ZM215.807 29.7761H214.775L212.958 27.4361H212.473L212.052 29.7761H211.194L212.1 24.7182H212.958L212.565 26.9128C212.786 26.9165 213.004 26.8718 213.205 26.782C213.436 26.6612 213.63 26.4804 213.767 26.2588C213.825 26.1764 213.883 26.0892 213.941 25.9923L214.101 25.721C214.273 25.4404 214.496 25.1953 214.76 24.9992C215.107 24.7862 215.512 24.6879 215.918 24.7182H216.31L216.185 25.4303H215.831C215.621 25.4242 215.414 25.4835 215.24 25.5999C215.044 25.7468 214.879 25.9312 214.755 26.1425C214.614 26.3826 214.44 26.6013 214.237 26.7917C214.075 26.9348 213.892 27.0524 213.694 27.1406L215.787 29.7761H215.807ZM219.716 27.1309C219.305 27.1451 218.894 27.1807 218.486 27.2374C218.184 27.2765 217.887 27.353 217.604 27.4652C217.389 27.546 217.202 27.6873 217.066 27.8721C216.945 28.0606 216.889 28.2835 216.906 28.5068C216.91 28.6011 216.934 28.6935 216.978 28.7773C217.022 28.861 217.083 28.9341 217.158 28.9913C217.366 29.1226 217.611 29.1837 217.856 29.1657C218.142 29.1617 218.424 29.099 218.684 28.9816C218.957 28.86 219.217 28.7106 219.46 28.5359L219.716 27.1163V27.1309ZM219.334 29.2577L219.014 29.4661C218.881 29.5522 218.742 29.6283 218.597 29.6938C218.434 29.7686 218.263 29.827 218.089 29.8682C217.874 29.9195 217.655 29.9439 217.434 29.9408C217.071 29.9514 216.716 29.8252 216.441 29.5872C216.31 29.4728 216.205 29.3322 216.131 29.1745C216.058 29.0168 216.018 28.8454 216.015 28.6715C215.983 28.3187 216.058 27.9645 216.228 27.6541C216.409 27.3611 216.669 27.1258 216.979 26.9758C217.363 26.7895 217.773 26.6637 218.195 26.6028C218.737 26.521 219.284 26.4741 219.833 26.4623C219.833 26.3751 219.857 26.3024 219.867 26.2443C219.871 26.1798 219.871 26.115 219.867 26.0505C219.864 25.925 219.828 25.8026 219.76 25.6968C219.696 25.6022 219.607 25.5268 219.503 25.4788C219.386 25.4216 219.26 25.384 219.13 25.3674C218.97 25.3462 218.808 25.3365 218.646 25.3383C218.351 25.3444 218.058 25.3867 217.774 25.4643C217.506 25.5293 217.242 25.6102 216.984 25.7065H216.94L217.061 24.8587C217.231 24.8102 217.483 24.7618 217.812 24.7036C218.132 24.6457 218.456 24.6165 218.781 24.6164C219.275 24.5885 219.768 24.6904 220.211 24.9119C220.369 25.0108 220.5 25.1486 220.591 25.3122C220.682 25.4759 220.729 25.6599 220.729 25.847C220.736 25.9324 220.736 26.0183 220.729 26.1038C220.723 26.1916 220.712 26.279 220.695 26.3654L220.08 29.8003H219.237L219.334 29.2577ZM225.109 29.8003H224.251L224.61 27.7752H223.708L221.771 29.8003H220.671L222.764 27.6832C222.474 27.6073 222.209 27.455 221.998 27.2423C221.821 27.0486 221.719 26.7975 221.712 26.535C221.683 26.2233 221.75 25.9102 221.906 25.6387C222.049 25.4117 222.24 25.2187 222.465 25.0731C222.69 24.9275 222.944 24.8328 223.209 24.7957C223.466 24.7576 223.725 24.7398 223.985 24.7424H226L225.094 29.8003H225.109ZM224.726 27.1309L225.041 25.3674H223.922C223.76 25.3658 223.598 25.3739 223.437 25.3916C223.313 25.4134 223.193 25.4559 223.083 25.5175C222.931 25.5976 222.808 25.7252 222.735 25.8809C222.65 26.0589 222.611 26.2557 222.623 26.4526C222.627 26.5358 222.645 26.6178 222.677 26.6948C222.705 26.767 222.75 26.8316 222.807 26.8838C222.917 26.9854 223.053 27.0542 223.2 27.0824C223.372 27.1181 223.547 27.1344 223.723 27.1309H224.726ZM161.816 39.7273H160.75L158.478 36.6557H157.81L157.262 39.7273H156.356L157.558 32.9882H158.464L157.94 36.0308C158.085 36.0258 158.229 36.0096 158.372 35.9823C158.515 35.9546 158.653 35.9073 158.783 35.8418C158.933 35.7573 159.071 35.6548 159.195 35.5366C159.343 35.3908 159.473 35.2282 159.583 35.0521C159.651 34.9552 159.718 34.8438 159.786 34.7275C159.854 34.6112 159.932 34.4853 160.004 34.3545C160.229 33.9328 160.545 33.5669 160.93 33.2837C161.312 33.0711 161.747 32.9719 162.184 32.9979H162.591L162.451 33.7731H162.039C161.874 33.7683 161.709 33.7963 161.555 33.8554C161.416 33.9065 161.292 33.9895 161.191 34.0977C161.079 34.2134 160.983 34.3438 160.905 34.4853L160.653 34.9164C160.478 35.2596 160.253 35.5748 159.985 35.8515C159.775 36.0501 159.535 36.2137 159.273 36.336L161.816 39.7273ZM166.976 36.4571C167.003 36.8979 166.956 37.3402 166.835 37.7652C166.728 38.1575 166.548 38.5259 166.303 38.8504C166.069 39.1607 165.772 39.4169 165.43 39.6014C165.063 39.7883 164.655 39.8799 164.243 39.8678C163.979 39.8842 163.714 39.8472 163.464 39.759C163.215 39.6707 162.985 39.5331 162.79 39.3543C162.421 38.974 162.214 38.4649 162.213 37.9348C162.188 37.4988 162.236 37.0616 162.354 36.6412C162.459 36.2441 162.641 35.8718 162.892 35.5463C163.126 35.2356 163.427 34.9821 163.774 34.805C164.138 34.6184 164.542 34.5236 164.951 34.5289C165.469 34.5017 165.977 34.6752 166.37 35.0133C166.561 35.2035 166.711 35.4303 166.812 35.6801C166.913 35.9299 166.962 36.1975 166.957 36.4668L166.976 36.4571ZM165.692 38.3902C165.849 38.1318 165.961 37.8482 166.021 37.552C166.092 37.221 166.118 36.8822 166.099 36.5443C166.104 36.1889 165.978 35.8442 165.745 35.5753C165.63 35.4641 165.493 35.3779 165.343 35.322C165.193 35.2661 165.033 35.2419 164.873 35.2507C164.6 35.2442 164.331 35.3165 164.098 35.4591C163.866 35.6065 163.669 35.8034 163.522 36.0356C163.364 36.2936 163.252 36.5773 163.192 36.8737C163.12 37.2013 163.093 37.5369 163.11 37.8718C163.105 38.2271 163.231 38.5718 163.463 38.8407C163.578 38.9543 163.716 39.0427 163.867 39.1003C164.018 39.1578 164.179 39.1833 164.34 39.175C164.615 39.1806 164.885 39.1084 165.12 38.9667C165.354 38.823 165.55 38.6253 165.692 38.3902ZM172.087 39.7467H171.239L171.956 35.8515L170.285 38.3708H169.665L168.846 35.6868L168.114 39.7273H167.31L168.216 34.6694H169.253L170.12 37.5084L171.952 34.6694H173.008L172.102 39.7273L172.087 39.7467ZM177.494 39.7467H176.636L177.421 35.3864H174.897L174.107 39.7467H173.245L174.156 34.6887H178.395L177.509 39.7273L177.494 39.7467ZM182.227 37.0772C181.815 37.0929 181.405 37.1301 180.997 37.1887C180.694 37.223 180.397 37.2996 180.115 37.4164C179.9 37.4936 179.712 37.6336 179.577 37.8185C179.455 38.0083 179.401 38.2335 179.422 38.458C179.423 38.5524 179.445 38.6454 179.488 38.7295C179.531 38.8136 179.593 38.8866 179.669 38.9425C179.877 39.0732 180.122 39.1343 180.367 39.1169C180.653 39.1129 180.935 39.0502 181.195 38.9328C181.47 38.8158 181.73 38.6679 181.971 38.4919L182.227 37.0675V37.0772ZM181.845 39.2089L181.525 39.4173C181.392 39.5034 181.253 39.5795 181.108 39.645C180.945 39.7181 180.774 39.7749 180.599 39.8145C180.385 39.8659 180.166 39.8903 179.945 39.8872C179.582 39.8991 179.228 39.7747 178.952 39.5384C178.821 39.4227 178.716 39.2812 178.643 39.1228C178.569 38.9643 178.53 38.7924 178.526 38.6179C178.488 38.2698 178.561 37.9187 178.736 37.6149C178.91 37.3112 179.175 37.0704 179.495 36.927C179.878 36.7386 180.288 36.6126 180.711 36.554C181.253 36.4704 181.8 36.4219 182.348 36.4086C182.348 36.3263 182.373 36.2536 182.382 36.1906C182.387 36.1261 182.387 36.0613 182.382 35.9968C182.38 35.8715 182.343 35.7492 182.276 35.6432C182.209 35.5511 182.121 35.4764 182.019 35.4252C181.901 35.3696 181.775 35.3337 181.646 35.3186C181.485 35.2957 181.324 35.2844 181.161 35.2847C180.867 35.2908 180.574 35.3331 180.289 35.4106C180.022 35.4777 179.758 35.5602 179.5 35.6577H179.456L179.577 34.8099C179.825 34.7444 180.075 34.6926 180.328 34.6548C180.648 34.5969 180.972 34.5677 181.297 34.5676C181.791 34.5371 182.285 34.6392 182.726 34.8632C182.886 34.9599 183.018 35.0965 183.109 35.2596C183.2 35.4227 183.247 35.6066 183.245 35.7934C183.252 35.8804 183.252 35.9679 183.245 36.055C183.245 36.147 183.245 36.2342 183.216 36.3166L182.61 39.7273H181.762L181.859 39.1896L181.845 39.2089ZM187.978 39.7273H187.121L187.528 37.4309H185.008L184.587 39.7273H183.724L184.63 34.6694H185.493L185.12 36.7526H187.644L188.012 34.6694H188.874L187.978 39.7273ZM193.414 39.7273H192.561L193.244 35.929L189.916 39.7273H189.131L190.037 34.6694H190.885L190.216 38.3902L193.491 34.6694H194.305L193.419 39.7273H193.414ZM198.472 39.7273H197.61L197.973 37.7022H197.072L195.134 39.7273H194.034L196.122 37.615C195.832 37.5394 195.569 37.3852 195.362 37.1693C195.183 36.9761 195.08 36.725 195.071 36.4619C195.046 36.1522 195.113 35.8419 195.265 35.5705C195.426 35.3155 195.647 35.1041 195.909 34.9552C196.114 34.837 196.339 34.7582 196.573 34.7227C196.83 34.6869 197.089 34.669 197.348 34.6694H199.363L198.477 39.7273H198.472ZM198.089 37.0724L198.399 35.3137H197.285C197.124 35.3044 196.962 35.3044 196.8 35.3137C196.675 35.3373 196.553 35.3815 196.442 35.4445C196.292 35.5263 196.171 35.6535 196.098 35.8079C196.011 35.9835 195.972 36.1792 195.987 36.3747C195.989 36.4592 196.005 36.5427 196.035 36.6218C196.068 36.6928 196.114 36.7569 196.171 36.8108C196.281 36.9082 196.414 36.975 196.558 37.0046C196.732 37.04 196.909 37.0562 197.086 37.053L198.089 37.0724Z" fill="#83929B"/>
<path fill-rule="evenodd" clip-rule="evenodd" d="M97.1819 13.6914C99.4541 13.1342 101.683 12.5964 104.294 12.5964C112.22 12.5964 117.729 17.8627 117.729 25.3431C117.729 33.6519 110.355 40.0374 100.825 40.0374C98.2768 40.0374 94.1296 39.4124 92.589 38.7389L95.3844 32.5279C96.9468 32.9889 98.5718 33.2015 100.2 33.1577C104.023 33.1577 107.123 31.3264 108.683 28.6085H98.3494L99.0762 23.3519H109.4C108.79 20.5807 106.406 19.0255 102.749 19.0255C101.317 19.0001 99.889 19.1912 98.5142 19.5923L97.1915 13.6914H97.1819Z" fill="#83929B"/>
<path fill-rule="evenodd" clip-rule="evenodd" d="M128.746 22.6397L138.101 12.8871L147.064 12.8435L134.792 25.4836C140.121 26.8159 141.017 34.1267 142.989 39.6255H134.056C132.21 33.0124 132.336 28.7587 128.915 28.7587H127.418L125.272 39.7854H117.452L122.69 12.9695H130.519L128.746 22.6591V22.6397Z" fill="#83929B"/>
<path fill-rule="evenodd" clip-rule="evenodd" d="M81.0631 18.8947C75.821 18.8947 74.1931 25.0912 74.1931 27.7945C74.1931 31.9078 77.1 33.7633 79.4885 33.7633C84.1056 33.7633 86.4117 28.5794 86.4117 24.8634C86.4117 21.3171 84.2703 18.8947 81.0824 18.8947H81.0631ZM79.4546 40.2118C71.8483 40.2118 65.9376 34.5821 65.9376 27.3149C65.9376 19.1417 72.919 12.3929 81.4167 12.3929C89.0764 12.3929 94.7109 17.3443 94.7109 25.0621C94.6915 33.6374 88.0977 40.2118 79.4546 40.2118Z" fill="#83929B"/>
<path d="M26.3363 52.6726C40.8814 52.6726 52.6726 40.8814 52.6726 26.3363C52.6726 11.7912 40.8814 0 26.3363 0C11.7912 0 0 11.7912 0 26.3363C0 40.8814 11.7912 52.6726 26.3363 52.6726Z" fill="#841431"/>
<path d="M26.3363 50.6862C39.7844 50.6862 50.6862 39.7844 50.6862 26.3363C50.6862 12.8882 39.7844 1.98633 26.3363 1.98633C12.8882 1.98633 1.98633 12.8882 1.98633 26.3363C1.98633 39.7844 12.8882 50.6862 26.3363 50.6862Z" fill="white"/>
<path d="M26.3362 50.0855C39.4525 50.0855 50.0854 39.4527 50.0854 26.3363C50.0854 13.22 39.4525 2.58716 26.3362 2.58716C13.2199 2.58716 2.58704 13.22 2.58704 26.3363C2.58704 39.4527 13.2199 50.0855 26.3362 50.0855Z" fill="#841431"/>
<path d="M26.3363 48.2687C38.4492 48.2687 48.2687 38.4492 48.2687 26.3363C48.2687 14.2234 38.4492 4.40393 26.3363 4.40393C14.2234 4.40393 4.40393 14.2234 4.40393 26.3363C4.40393 38.4492 14.2234 48.2687 26.3363 48.2687Z" fill="white"/>
<path d="M26.3314 47.4935C38.0056 47.4935 47.4693 38.0298 47.4693 26.3557C47.4693 14.6816 38.0056 5.21783 26.3314 5.21783C14.6573 5.21783 5.1936 14.6816 5.1936 26.3557C5.1936 38.0298 14.6573 47.4935 26.3314 47.4935Z" fill="#841431"/>
<path d="M26.3315 45.8026C37.0825 45.8026 45.7979 37.0872 45.7979 26.3363C45.7979 15.5853 37.0825 6.86987 26.3315 6.86987C15.5805 6.86987 6.86511 15.5853 6.86511 26.3363C6.86511 37.0872 15.5805 45.8026 26.3315 45.8026Z" fill="white"/>
<path d="M26.3363 44.8676C36.5708 44.8676 44.8676 36.5708 44.8676 26.3363C44.8676 16.1017 36.5708 7.80493 26.3363 7.80493C16.1017 7.80493 7.80493 16.1017 7.80493 26.3363C7.80493 36.5708 16.1017 44.8676 26.3363 44.8676Z" fill="#841431"/>
<path d="M26.3363 43.3609C35.7387 43.3609 43.3609 35.7387 43.3609 26.3363C43.3609 16.9339 35.7387 9.31171 26.3363 9.31171C16.9338 9.31171 9.31165 16.9339 9.31165 26.3363C9.31165 35.7387 16.9338 43.3609 26.3363 43.3609Z" fill="white"/>
<path d="M26.3362 42.2805C35.1419 42.2805 42.2804 35.1421 42.2804 26.3363C42.2804 17.5306 35.1419 10.3921 26.3362 10.3921C17.5304 10.3921 10.392 17.5306 10.392 26.3363C10.392 35.1421 17.5304 42.2805 26.3362 42.2805Z" fill="#841431"/>
<path d="M26.3363 40.9434C34.4036 40.9434 40.9434 34.4036 40.9434 26.3363C40.9434 18.2691 34.4036 11.7292 26.3363 11.7292C18.2691 11.7292 11.7292 18.2691 11.7292 26.3363C11.7292 34.4036 18.2691 40.9434 26.3363 40.9434Z" fill="white"/>
<path d="M26.3363 39.7176C33.7266 39.7176 39.7176 33.7266 39.7176 26.3363C39.7176 18.946 33.7266 12.955 26.3363 12.955C18.946 12.955 12.955 18.946 12.955 26.3363C12.955 33.7266 18.946 39.7176 26.3363 39.7176Z" fill="#841431"/>
<path d="M26.3024 38.55C33.0478 38.55 38.5161 33.0817 38.5161 26.3363C38.5161 19.5908 33.0478 14.1226 26.3024 14.1226C19.5569 14.1226 14.0886 19.5908 14.0886 26.3363C14.0886 33.0817 19.5569 38.55 26.3024 38.55Z" fill="white"/>
<path d="M26.312 37.1741C32.2976 37.1741 37.1499 32.3218 37.1499 26.3363C37.1499 20.3507 32.2976 15.4985 26.312 15.4985C20.3265 15.4985 15.4742 20.3507 15.4742 26.3363C15.4742 32.3218 20.3265 37.1741 26.312 37.1741Z" fill="#841431"/>
<path d="M26.3072 36.2245C31.7683 36.2245 36.1954 31.7974 36.1954 26.3363C36.1954 20.8752 31.7683 16.4481 26.3072 16.4481C20.8461 16.4481 16.4189 20.8752 16.4189 26.3363C16.4189 31.7974 20.8461 36.2245 26.3072 36.2245Z" fill="white"/>
<path d="M26.3364 34.7274C30.9707 34.7274 34.7276 30.9706 34.7276 26.3363C34.7276 21.7019 30.9707 17.9451 26.3364 17.9451C21.7021 17.9451 17.9452 21.7019 17.9452 26.3363C17.9452 30.9706 21.7021 34.7274 26.3364 34.7274Z" fill="#841431"/>
<path d="M26.317 33.9669C30.5312 33.9669 33.9475 30.5505 33.9475 26.3363C33.9475 22.1221 30.5312 18.7057 26.317 18.7057C22.1027 18.7057 18.6864 22.1221 18.6864 26.3363C18.6864 30.5505 22.1027 33.9669 26.317 33.9669Z" fill="white"/>
<path d="M26.3362 32.4795C29.729 32.4795 32.4794 29.7291 32.4794 26.3363C32.4794 22.9435 29.729 20.1931 26.3362 20.1931C22.9434 20.1931 20.193 22.9435 20.193 26.3363C20.193 29.7291 22.9434 32.4795 26.3362 32.4795Z" fill="#841431"/>
<path d="M26.3363 31.8788C29.3973 31.8788 31.8787 29.3973 31.8787 26.3363C31.8787 23.2753 29.3973 20.7939 26.3363 20.7939C23.2753 20.7939 20.7938 23.2753 20.7938 26.3363C20.7938 29.3973 23.2753 31.8788 26.3363 31.8788Z" fill="white"/>
<path d="M26.3362 30.7305C28.7631 30.7305 30.7305 28.7631 30.7305 26.3362C30.7305 23.9094 28.7631 21.942 26.3362 21.942C23.9094 21.942 21.942 23.9094 21.942 26.3362C21.942 28.7631 23.9094 30.7305 26.3362 30.7305Z" fill="#841431"/>
<path d="M26.3363 30.3333C28.5438 30.3333 30.3333 28.5438 30.3333 26.3363C30.3333 24.1289 28.5438 22.3394 26.3363 22.3394C24.1289 22.3394 22.3394 24.1289 22.3394 26.3363C22.3394 28.5438 24.1289 30.3333 26.3363 30.3333Z" fill="white"/>
<path fill-rule="evenodd" clip-rule="evenodd" d="M37.581 20.2464L46.4325 14.2582C46.5478 14.1798 46.6429 14.0754 46.7103 13.9533C46.7776 13.8312 46.8152 13.695 46.8201 13.5557C46.8227 13.4171 46.7925 13.2799 46.7319 13.1552C46.6712 13.0306 46.5819 12.9221 46.4712 12.8387L37.8669 6.36602C37.7365 6.26909 37.5818 6.21028 37.42 6.19614C37.2582 6.182 37.0956 6.21308 36.9504 6.28593C36.8052 6.35878 36.6831 6.47052 36.5977 6.60871C36.5123 6.74689 36.467 6.90608 36.4667 7.06852V9.52967L36.3505 9.64595H21.7386L12.5964 9.62657C12.3832 9.62674 12.1772 9.70372 12.0162 9.84342C11.8551 9.98311 11.7498 10.1762 11.7195 10.3872L9.09849 16.7678C9.08113 16.8923 9.09073 17.019 9.12665 17.1395C9.16257 17.2599 9.22396 17.3713 9.30666 17.4659C9.38936 17.5606 9.49144 17.6363 9.60599 17.6881C9.72054 17.7398 9.84487 17.7663 9.97056 17.7658H20.8907C22.3311 17.6972 23.766 17.9869 25.0669 18.6088C26.0566 19.1499 26.8413 20.001 27.3004 21.0312C27.6469 21.8082 27.9085 22.6204 28.0804 23.4536L28.0513 23.5311L27.9641 23.5747H21.07C20.8481 23.5744 20.6346 23.6591 20.4733 23.8114C20.312 23.9637 20.2152 24.172 20.2028 24.3935L19.3501 29.2383C19.3414 29.358 19.3575 29.4782 19.3975 29.5914C19.4374 29.7046 19.5003 29.8083 19.5821 29.8961C19.664 29.9838 19.7631 30.0538 19.8732 30.1015C19.9833 30.1492 20.1021 30.1737 20.2221 30.1733H27.0049L27.1017 30.2412V30.2945V30.3526C26.2244 32.0467 24.9757 33.5207 23.4488 34.6645C21.9517 35.7109 20.0574 36.3117 17.5769 36.3165C15.4736 36.2497 13.3905 35.8843 11.3901 35.2313C11.2655 35.2005 11.1358 35.1967 11.0096 35.2201C10.8835 35.2435 10.7638 35.2936 10.6585 35.367C10.5523 35.4353 10.4619 35.5256 10.3934 35.6317C10.3249 35.7378 10.2798 35.8573 10.2612 35.9822C10.1207 37.0142 9.91726 38.4046 9.71863 39.7806C9.54421 40.9482 9.37465 42.0431 9.26806 42.765C9.23881 42.9752 9.2864 43.189 9.4021 43.367C9.5178 43.545 9.69384 43.6753 9.89788 43.7339C12.644 44.5292 15.4798 44.9736 18.3375 45.0565C24.5098 45.0565 29.5823 42.9927 33.1045 39.5916C36.6266 36.1906 38.6517 31.4911 38.6517 26.0989C38.6552 24.4203 38.3902 22.752 37.8669 21.1572C37.8039 20.9925 37.7506 20.852 37.707 20.7454L37.644 20.6049L37.5859 20.4983C37.5831 20.4695 37.5713 20.4423 37.552 20.4208L37.5229 20.3481L37.581 20.2464Z" fill="white"/>
</svg>
