<svg width="26" height="26" viewBox="0 0 26 26" fill="none" xmlns="http://www.w3.org/2000/svg">
<circle cx="13" cy="13" r="12.5" fill="#85949C" stroke="#85949C"/>
<path d="M18.367 8.94491C18.367 10.4999 17.7056 11.9005 16.6489 12.8807C15.6913 13.7689 14.4091 14.3119 13 14.3119C11.5909 14.3119 10.3087 13.7689 9.35114 12.8807C8.29438 11.9005 7.63304 10.4999 7.63304 8.94491C7.63304 5.98082 10.0359 3.57794 13 3.57794C15.9641 3.57794 18.367 5.98082 18.367 8.94491Z" fill="white"/>
<path d="M17.0549 13.3578C13.9063 16.411 10.0977 14.63 8.58704 13.3578C4.67511 15.1706 3.22007 18.5657 2.98154 20.0367C4.49224 21.6269 7.63291 25.4037 13.4769 25.0459C18.2476 25.0459 21.7461 21.6269 22.899 20.0367C21.7063 17.7706 21.11 15.5046 17.0549 13.3578Z" fill="white"/>
</svg>
